<svg version="1.1" id="Layer_1" xmlns="http://www.w3.org/2000/svg" xmlns:xlink="http://www.w3.org/1999/xlink" x="0px" y="0px"
	 width="100%" viewBox="0 0 1024 1024" enable-background="new 0 0 1024 1024" xml:space="preserve">
<path fill="rgba(255,255,255,0)" opacity="1.000000" stroke="none" 
	d="
M492.000000,1025.000000 
	C328.000000,1025.000000 164.500000,1025.000000 1.000000,1025.000000 
	C1.000000,683.666687 1.000000,342.333344 1.000000,1.000000 
	C342.333344,1.000000 683.666687,1.000000 1025.000000,1.000000 
	C1025.000000,342.333344 1025.000000,683.666687 1025.000000,1025.000000 
	C847.500000,1025.000000 670.000000,1025.000000 492.000000,1025.000000 
M451.873352,561.499939 
	C451.873352,576.946167 451.873352,592.392334 451.873352,608.330688 
	C454.029449,608.330688 455.647125,608.327209 457.264771,608.331238 
	C490.580383,608.413879 523.897217,608.684082 557.210876,608.467651 
	C567.320435,608.402039 577.513916,607.605042 587.510315,606.093994 
	C635.833984,598.789612 670.508606,561.163513 673.005005,512.244751 
	C674.319336,486.490570 673.817383,460.634186 673.764648,434.824707 
	C673.746033,425.695312 673.211365,416.483765 671.908142,407.454712 
	C666.501648,369.999969 646.138855,344.289978 610.371155,331.418274 
	C593.752441,325.437714 576.331421,323.822144 558.760620,323.808014 
	C524.611938,323.780548 490.463226,323.801453 456.314514,323.802338 
	C454.853760,323.802368 453.392975,323.802338 451.869965,323.802338 
	C451.869965,402.985748 451.869965,481.742798 451.873352,561.499939 
M912.474854,565.967407 
	C916.868164,557.106934 921.261475,548.246460 925.984985,538.720032 
	C902.146973,530.800110 879.814758,523.380493 857.286621,515.895813 
	C856.665649,517.776245 856.264648,519.026733 855.840515,520.269348 
	C848.951477,540.451965 838.493225,548.117859 817.339417,548.494934 
	C795.226685,548.889160 780.989563,538.141907 778.202454,516.170227 
	C773.872009,482.031006 774.087524,447.672424 778.304138,413.490387 
	C779.987732,399.842682 790.841248,388.169373 803.003296,386.400482 
	C811.140747,385.216919 819.624207,385.050354 827.809387,385.866821 
	C840.922424,387.174805 849.640015,394.961212 854.247742,407.247406 
	C855.396484,410.310455 856.160339,413.517822 857.222473,417.063934 
	C880.090393,408.684784 902.656616,400.416199 925.358826,392.097748 
	C924.935059,390.550079 924.737183,389.585388 924.409729,388.666901 
	C914.915771,362.034760 897.396057,342.690186 871.609314,331.046844 
	C847.925476,320.353058 822.920959,319.276489 797.601807,321.863739 
	C745.904846,327.146484 708.496826,363.537964 703.059509,415.132446 
	C701.024597,434.441345 701.549316,454.054291 701.523010,473.529449 
	C701.502991,488.336670 701.434631,503.266907 703.179749,517.929077 
	C707.463074,553.916870 725.509094,581.192749 757.710205,598.493774 
	C779.043457,609.955811 802.147461,613.199890 825.971924,611.858398 
	C861.476929,609.859253 891.003235,596.174622 912.474854,565.967407 
M220.898300,334.511719 
	C220.898300,389.594147 220.898300,444.676605 220.898300,499.858185 
	C287.460358,499.858185 353.312653,499.858185 419.119507,499.858185 
	C419.119507,478.016998 419.119507,456.593781 419.119507,434.666077 
	C377.332977,434.666077 335.772278,434.666077 294.217041,434.666077 
	C294.217041,419.274567 294.217041,404.392700 294.217041,389.139648 
	C336.176697,389.139648 377.736877,389.139648 419.394531,389.139648 
	C419.394531,367.214874 419.394531,345.669403 419.394531,323.937775 
	C353.127380,323.937775 287.223755,323.937775 220.897949,323.937775 
	C220.897949,327.260712 220.897949,330.389069 220.898300,334.511719 
M110.036514,440.500000 
	C110.036514,496.277405 110.036514,552.054810 110.036514,608.183228 
	C135.174362,608.183228 159.752640,608.183228 184.337433,608.183228 
	C184.337433,531.904602 184.337433,455.857117 184.337433,379.706909 
	C159.302414,379.706909 134.747696,379.706909 110.036514,379.706909 
	C110.036514,399.858765 110.036514,419.679382 110.036514,440.500000 
M230.548706,543.250061 
	C227.430954,543.250061 224.313217,543.250061 221.223038,543.250061 
	C221.223038,565.221741 221.223038,586.623901 221.223038,608.228271 
	C287.649200,608.228271 353.723053,608.228271 419.726105,608.228271 
	C419.726105,586.527344 419.726105,565.141846 419.726105,543.251221 
	C356.739349,543.251221 294.136688,543.251221 230.548706,543.250061 
M742.350159,681.499817 
	C742.350159,688.111084 742.350159,694.722351 742.350159,701.436768 
	C745.030640,701.436768 747.099854,701.436768 749.692078,701.436768 
	C749.692078,690.143311 749.692078,679.151001 749.692078,668.158691 
	C751.274353,669.202209 751.988159,670.423096 752.551941,671.709595 
	C756.425476,680.548462 760.294312,689.389465 764.099915,698.257690 
	C764.977234,700.301880 765.647339,702.021545 768.565308,701.844055 
	C771.320129,701.676453 773.063965,701.177185 774.223633,698.273987 
	C777.554810,689.934021 781.251099,681.739197 784.853394,673.509033 
	C785.604675,671.792664 786.568848,670.169373 787.434937,668.503174 
	C787.838806,668.609253 788.242737,668.715393 788.646667,668.821533 
	C788.646667,679.674927 788.646667,690.528259 788.646667,701.469116 
	C791.373962,701.469116 793.459534,701.469116 795.646118,701.469116 
	C795.646118,684.624817 795.646118,668.076294 795.646118,651.635010 
	C790.115173,650.058777 786.945862,651.189758 784.760986,656.884460 
	C780.260803,668.613525 774.822693,679.982727 769.436340,692.261963 
	C768.406433,690.360413 767.727600,689.276978 767.208252,688.121765 
	C762.498779,677.646973 757.823486,667.156860 753.125244,656.676941 
	C750.153870,650.048889 750.133606,650.048340 742.356750,651.685059 
	C742.356750,661.238708 742.356750,670.869324 742.350159,681.499817 
M184.622070,334.246948 
	C184.622070,330.832306 184.622070,327.417664 184.622070,323.971069 
	C159.395294,323.971069 134.963654,323.971069 110.668335,323.971069 
	C110.668335,328.982666 110.668335,333.715820 110.668335,338.827179 
	C134.546249,338.827179 158.017853,338.782196 181.488831,338.883362 
	C184.467316,338.896179 184.755508,337.385345 184.622070,334.246948 
M142.181320,700.972839 
	C147.718079,699.263550 151.522644,695.852600 152.459351,689.945984 
	C153.463303,683.615417 150.538177,679.152161 144.643677,676.002869 
	C150.633621,672.143616 152.611984,667.024963 150.829910,660.722900 
	C149.072052,654.506653 143.981003,652.070740 138.277145,651.735901 
	C129.867950,651.242249 121.408272,651.608521 112.755173,651.608521 
	C112.755173,668.429199 112.755173,685.013672 112.755173,702.426086 
	C122.526604,701.985596 131.950485,701.560791 142.181320,700.972839 
M137.500183,351.702332 
	C128.553101,351.702332 119.606010,351.702332 110.449997,351.702332 
	C110.449997,356.825287 110.449997,361.398468 110.449997,366.146851 
	C135.216415,366.146851 159.732605,366.146851 184.203369,366.146851 
	C184.203369,361.174683 184.203369,356.584198 184.203369,351.703522 
	C168.748672,351.703522 153.624451,351.703522 137.500183,351.702332 
M263.806396,670.673035 
	C262.047821,659.862976 255.523361,653.275635 245.054108,651.268005 
	C234.340164,649.213501 224.356766,651.048523 217.405762,660.588562 
	C210.618286,669.904114 211.257767,686.449402 218.465485,694.745422 
	C225.312805,702.626648 240.369019,704.950134 250.867691,699.745850 
	C260.913818,694.765869 265.096985,685.687256 263.806396,670.673035 
M333.611511,697.965759 
	C340.098511,702.229004 347.321442,702.892395 354.742706,701.980164 
	C365.973267,700.599609 373.699097,692.663147 375.202393,681.291626 
	C377.007385,667.637817 371.863922,657.084717 361.236176,652.636780 
	C349.589417,647.762329 334.541870,651.678528 328.377075,661.049133 
	C321.851105,670.968750 322.564423,690.303833 333.611511,697.965759 
M644.911987,691.670288 
	C651.063232,691.651611 657.234985,691.931824 663.358826,691.512451 
	C667.670959,691.217163 669.980042,692.434692 671.399902,696.700317 
	C673.455566,702.875854 674.039062,702.903625 680.984863,701.004456 
	C674.301331,685.050781 667.734131,669.091248 660.786926,653.298889 
	C660.193909,651.950745 657.066772,651.137573 655.124817,651.151917 
	C653.656860,651.162659 651.458313,652.561523 650.860596,653.908569 
	C646.822510,663.009460 643.093323,672.248535 639.326660,681.468384 
	C636.641052,688.042236 634.052979,694.655823 631.377869,701.360657 
	C638.876526,702.293701 638.820862,702.270691 641.326538,696.216492 
	C641.984497,694.626892 643.103943,693.228210 644.911987,691.670288 
M895.724976,655.780701 
	C885.157715,647.562866 873.089661,652.719727 861.676636,651.023071 
	C861.676636,668.500916 861.676636,685.037842 861.676636,701.506226 
	C864.308594,701.506226 866.519043,701.506226 869.044250,701.506226 
	C869.044250,695.319031 869.044250,689.552246 869.044250,683.243835 
	C874.149658,683.243835 878.963013,683.577454 883.715576,683.181641 
	C898.236694,681.972107 904.436584,668.481750 895.724976,655.780701 
M537.845886,682.856689 
	C534.959045,667.309814 543.068359,656.215149 557.141174,657.327759 
	C561.649170,657.684143 565.979858,660.282593 571.295959,662.177551 
	C572.017029,661.575073 573.744263,660.131897 575.485718,658.676819 
	C565.839478,648.192932 547.040405,647.957275 536.918213,657.886475 
	C527.242188,667.377991 526.900574,686.645996 536.249878,695.581665 
	C546.183594,705.075867 565.588867,704.400818 574.442810,694.253174 
	C572.142761,690.514954 569.816589,690.425232 566.073914,692.993164 
	C557.825928,698.652649 541.826660,697.519775 537.845886,682.856689 
M456.298492,668.497070 
	C456.298492,665.061462 456.298492,661.625916 456.298492,657.595581 
	C462.213104,657.595581 467.596924,657.595581 473.308014,657.595581 
	C473.160217,655.067383 473.049652,653.176086 472.949951,651.470703 
	C459.300751,651.470703 446.221802,651.470703 433.140991,651.470703 
	C433.140991,653.614746 433.140991,655.400818 433.140991,657.842163 
	C438.385223,657.842163 443.428314,657.842163 449.031738,657.842163 
	C449.031738,672.888184 449.031738,687.284485 449.031738,701.650513 
	C451.735107,701.650513 453.839752,701.650513 456.303986,701.650513 
	C456.303986,690.771851 456.303986,680.136292 456.298492,668.497070 
z"/>
<path fill="#030303" opacity="1.000000" stroke="none" 
	d="
M451.871643,560.999878 
	C451.869965,481.742798 451.869965,402.985748 451.869965,323.802338 
	C453.392975,323.802338 454.853760,323.802368 456.314514,323.802338 
	C490.463226,323.801453 524.611938,323.780548 558.760620,323.808014 
	C576.331421,323.822144 593.752441,325.437714 610.371155,331.418274 
	C646.138855,344.289978 666.501648,369.999969 671.908142,407.454712 
	C673.211365,416.483765 673.746033,425.695312 673.764648,434.824707 
	C673.817383,460.634186 674.319336,486.490570 673.005005,512.244751 
	C670.508606,561.163513 635.833984,598.789612 587.510315,606.093994 
	C577.513916,607.605042 567.320435,608.402039 557.210876,608.467651 
	C523.897217,608.684082 490.580383,608.413879 457.264771,608.331238 
	C455.647125,608.327209 454.029449,608.330688 451.873352,608.330688 
	C451.873352,592.392334 451.873352,576.946167 451.871643,560.999878 
M600.572876,470.512878 
	C600.083496,454.207428 599.899353,437.885498 599.022339,421.600952 
	C598.070312,403.923584 591.045776,395.196747 573.549133,392.170929 
	C561.179382,390.031738 548.402832,390.216736 535.802124,389.459351 
	C532.564636,389.264771 529.305481,389.430115 526.105103,389.430115 
	C526.105103,441.084686 526.105103,491.972656 526.105103,544.259521 
	C542.590454,543.298584 558.753967,543.275085 574.642700,541.174011 
	C590.796021,539.038086 597.279785,531.630493 598.717773,515.381226 
	C600.006775,500.816254 600.006592,486.137207 600.572876,470.512878 
z"/>
<path fill="#030303" opacity="1.000000" stroke="none" 
	d="
M912.270386,566.266418 
	C891.003235,596.174622 861.476929,609.859253 825.971924,611.858398 
	C802.147461,613.199890 779.043457,609.955811 757.710205,598.493774 
	C725.509094,581.192749 707.463074,553.916870 703.179749,517.929077 
	C701.434631,503.266907 701.502991,488.336670 701.523010,473.529449 
	C701.549316,454.054291 701.024597,434.441345 703.059509,415.132446 
	C708.496826,363.537964 745.904846,327.146484 797.601807,321.863739 
	C822.920959,319.276489 847.925476,320.353058 871.609314,331.046844 
	C897.396057,342.690186 914.915771,362.034760 924.409729,388.666901 
	C924.737183,389.585388 924.935059,390.550079 925.358826,392.097748 
	C902.656616,400.416199 880.090393,408.684784 857.222473,417.063934 
	C856.160339,413.517822 855.396484,410.310455 854.247742,407.247406 
	C849.640015,394.961212 840.922424,387.174805 827.809387,385.866821 
	C819.624207,385.050354 811.140747,385.216919 803.003296,386.400482 
	C790.841248,388.169373 779.987732,399.842682 778.304138,413.490387 
	C774.087524,447.672424 773.872009,482.031006 778.202454,516.170227 
	C780.989563,538.141907 795.226685,548.889160 817.339417,548.494934 
	C838.493225,548.117859 848.951477,540.451965 855.840515,520.269348 
	C856.264648,519.026733 856.665649,517.776245 857.286621,515.895813 
	C879.814758,523.380493 902.146973,530.800110 925.984985,538.720032 
	C921.261475,548.246460 916.868164,557.106934 912.270386,566.266418 
z"/>
<path fill="#020202" opacity="1.000000" stroke="none" 
	d="
M220.898132,334.014557 
	C220.897949,330.389069 220.897949,327.260712 220.897949,323.937775 
	C287.223755,323.937775 353.127380,323.937775 419.394531,323.937775 
	C419.394531,345.669403 419.394531,367.214874 419.394531,389.139648 
	C377.736877,389.139648 336.176697,389.139648 294.217041,389.139648 
	C294.217041,404.392700 294.217041,419.274567 294.217041,434.666077 
	C335.772278,434.666077 377.332977,434.666077 419.119507,434.666077 
	C419.119507,456.593781 419.119507,478.016998 419.119507,499.858185 
	C353.312653,499.858185 287.460358,499.858185 220.898300,499.858185 
	C220.898300,444.676605 220.898300,389.594147 220.898132,334.014557 
z"/>
<path fill="#040404" opacity="1.000000" stroke="none" 
	d="
M110.036514,440.000000 
	C110.036514,419.679382 110.036514,399.858765 110.036514,379.706909 
	C134.747696,379.706909 159.302414,379.706909 184.337433,379.706909 
	C184.337433,455.857117 184.337433,531.904602 184.337433,608.183228 
	C159.752640,608.183228 135.174362,608.183228 110.036514,608.183228 
	C110.036514,552.054810 110.036514,496.277405 110.036514,440.000000 
z"/>
<path fill="#040404" opacity="1.000000" stroke="none" 
	d="
M231.041351,543.250610 
	C294.136688,543.251221 356.739349,543.251221 419.726105,543.251221 
	C419.726105,565.141846 419.726105,586.527344 419.726105,608.228271 
	C353.723053,608.228271 287.649200,608.228271 221.223038,608.228271 
	C221.223038,586.623901 221.223038,565.221741 221.223038,543.250061 
	C224.313217,543.250061 227.430954,543.250061 231.041351,543.250610 
z"/>
<path fill="#141316" opacity="1.000000" stroke="none" 
	d="
M742.353455,680.999878 
	C742.356750,670.869324 742.356750,661.238708 742.356750,651.685059 
	C750.133606,650.048340 750.153870,650.048889 753.125244,656.676941 
	C757.823486,667.156860 762.498779,677.646973 767.208252,688.121765 
	C767.727600,689.276978 768.406433,690.360413 769.436340,692.261963 
	C774.822693,679.982727 780.260803,668.613525 784.760986,656.884460 
	C786.945862,651.189758 790.115173,650.058777 795.646118,651.635010 
	C795.646118,668.076294 795.646118,684.624817 795.646118,701.469116 
	C793.459534,701.469116 791.373962,701.469116 788.646667,701.469116 
	C788.646667,690.528259 788.646667,679.674927 788.646667,668.821533 
	C788.242737,668.715393 787.838806,668.609253 787.434937,668.503174 
	C786.568848,670.169373 785.604675,671.792664 784.853394,673.509033 
	C781.251099,681.739197 777.554810,689.934021 774.223633,698.273987 
	C773.063965,701.177185 771.320129,701.676453 768.565308,701.844055 
	C765.647339,702.021545 764.977234,700.301880 764.099915,698.257690 
	C760.294312,689.389465 756.425476,680.548462 752.551941,671.709595 
	C751.988159,670.423096 751.274353,669.202209 749.692078,668.158691 
	C749.692078,679.151001 749.692078,690.143311 749.692078,701.436768 
	C747.099854,701.436768 745.030640,701.436768 742.350159,701.436768 
	C742.350159,694.722351 742.350159,688.111084 742.353455,680.999878 
z"/>
<path fill="#0C0C0C" opacity="1.000000" stroke="none" 
	d="
M184.619568,334.701080 
	C184.755508,337.385345 184.467316,338.896179 181.488831,338.883362 
	C158.017853,338.782196 134.546249,338.827179 110.668335,338.827179 
	C110.668335,333.715820 110.668335,328.982666 110.668335,323.971069 
	C134.963654,323.971069 159.395294,323.971069 184.622070,323.971069 
	C184.622070,327.417664 184.622070,330.832306 184.619568,334.701080 
z"/>
<path fill="#0F0F11" opacity="1.000000" stroke="none" 
	d="
M141.777832,701.054443 
	C131.950485,701.560791 122.526604,701.985596 112.755173,702.426086 
	C112.755173,685.013672 112.755173,668.429199 112.755173,651.608521 
	C121.408272,651.608521 129.867950,651.242249 138.277145,651.735901 
	C143.981003,652.070740 149.072052,654.506653 150.829910,660.722900 
	C152.611984,667.024963 150.633621,672.143616 144.643677,676.002869 
	C150.538177,679.152161 153.463303,683.615417 152.459351,689.945984 
	C151.522644,695.852600 147.718079,699.263550 141.777832,701.054443 
M132.296112,679.238098 
	C128.364395,679.238098 124.432678,679.238098 120.371117,679.238098 
	C120.371117,684.986328 120.371117,690.062927 120.371117,695.728271 
	C124.886925,695.728271 129.164490,695.849670 133.432724,695.701660 
	C141.056747,695.437317 145.153427,692.252502 145.057663,686.889587 
	C144.966492,681.783936 141.157745,679.322876 132.296112,679.238098 
M144.003250,663.772949 
	C142.376892,661.898560 140.906296,658.606812 139.095810,658.407837 
	C132.948807,657.732300 126.681686,658.149841 120.335129,658.149841 
	C120.335129,663.140076 120.335129,667.882690 120.335129,673.187500 
	C125.475075,673.187500 130.408371,673.304993 135.333710,673.157043 
	C141.197968,672.980896 143.349487,670.759644 144.003250,663.772949 
z"/>
<path fill="#050505" opacity="1.000000" stroke="none" 
	d="
M138.000198,351.702942 
	C153.624451,351.703522 168.748672,351.703522 184.203369,351.703522 
	C184.203369,356.584198 184.203369,361.174683 184.203369,366.146851 
	C159.732605,366.146851 135.216415,366.146851 110.449997,366.146851 
	C110.449997,361.398468 110.449997,356.825287 110.449997,351.702332 
	C119.606010,351.702332 128.553101,351.702332 138.000198,351.702942 
z"/>
<path fill="#0F0F11" opacity="1.000000" stroke="none" 
	d="
M263.846710,671.081543 
	C265.096985,685.687256 260.913818,694.765869 250.867691,699.745850 
	C240.369019,704.950134 225.312805,702.626648 218.465485,694.745422 
	C211.257767,686.449402 210.618286,669.904114 217.405762,660.588562 
	C224.356766,651.048523 234.340164,649.213501 245.054108,651.268005 
	C255.523361,653.275635 262.047821,659.862976 263.846710,671.081543 
M245.805908,694.744629 
	C254.313538,690.016235 257.399353,683.416443 256.201752,672.510620 
	C255.283661,664.150330 250.488403,658.746155 242.760803,657.363098 
	C233.590179,655.721741 225.350815,659.187195 222.195343,666.779785 
	C218.819092,674.903748 218.954300,683.336426 224.481674,690.437317 
	C229.759903,697.218018 237.394714,697.036377 245.805908,694.744629 
z"/>
<path fill="#0F0F11" opacity="1.000000" stroke="none" 
	d="
M333.312866,697.758423 
	C322.564423,690.303833 321.851105,670.968750 328.377075,661.049133 
	C334.541870,651.678528 349.589417,647.762329 361.236176,652.636780 
	C371.863922,657.084717 377.007385,667.637817 375.202393,681.291626 
	C373.699097,692.663147 365.973267,700.599609 354.742706,701.980164 
	C347.321442,702.892395 340.098511,702.229004 333.312866,697.758423 
M341.348206,694.535217 
	C356.729309,699.999268 368.674103,691.146973 367.797058,674.899414 
	C367.698822,673.079956 367.436157,671.253967 367.072601,669.467041 
	C365.913940,663.772217 362.460388,659.998718 357.049805,658.052368 
	C347.716278,654.694885 337.844360,658.222046 333.852905,666.262512 
	C329.153839,675.728455 332.375488,688.917480 341.348206,694.535217 
z"/>
<path fill="#141316" opacity="1.000000" stroke="none" 
	d="
M644.461792,691.706055 
	C643.103943,693.228210 641.984497,694.626892 641.326538,696.216492 
	C638.820862,702.270691 638.876526,702.293701 631.377869,701.360657 
	C634.052979,694.655823 636.641052,688.042236 639.326660,681.468384 
	C643.093323,672.248535 646.822510,663.009460 650.860596,653.908569 
	C651.458313,652.561523 653.656860,651.162659 655.124817,651.151917 
	C657.066772,651.137573 660.193909,651.950745 660.786926,653.298889 
	C667.734131,669.091248 674.301331,685.050781 680.984863,701.004456 
	C674.039062,702.903625 673.455566,702.875854 671.399902,696.700317 
	C669.980042,692.434692 667.670959,691.217163 663.358826,691.512451 
	C657.234985,691.931824 651.063232,691.651611 644.461792,691.706055 
M665.989319,684.075562 
	C662.864990,676.323364 659.740662,668.571167 656.073608,659.472412 
	C652.249939,668.846191 648.950745,676.934265 645.308899,685.862366 
	C652.953979,685.513367 659.375671,685.220276 665.989319,684.075562 
z"/>
<path fill="#161618" opacity="1.000000" stroke="none" 
	d="
M895.966614,656.056274 
	C904.436584,668.481750 898.236694,681.972107 883.715576,683.181641 
	C878.963013,683.577454 874.149658,683.243835 869.044250,683.243835 
	C869.044250,689.552246 869.044250,695.319031 869.044250,701.506226 
	C866.519043,701.506226 864.308594,701.506226 861.676636,701.506226 
	C861.676636,685.037842 861.676636,668.500916 861.676636,651.023071 
	C873.089661,652.719727 885.157715,647.562866 895.966614,656.056274 
M888.116882,658.986816 
	C881.829590,658.393433 875.542236,657.800049 869.174744,657.199158 
	C869.174744,664.454224 869.174744,670.619507 869.174744,676.835632 
	C873.905701,676.835632 878.208496,677.005859 882.491455,676.788025 
	C886.828247,676.567383 890.107056,674.412292 891.511353,670.173218 
	C892.856934,666.111572 892.440430,662.309875 888.116882,658.986816 
z"/>
<path fill="#101012" opacity="1.000000" stroke="none" 
	d="
M537.935730,683.279968 
	C541.826660,697.519775 557.825928,698.652649 566.073914,692.993164 
	C569.816589,690.425232 572.142761,690.514954 574.442810,694.253174 
	C565.588867,704.400818 546.183594,705.075867 536.249878,695.581665 
	C526.900574,686.645996 527.242188,667.377991 536.918213,657.886475 
	C547.040405,647.957275 565.839478,648.192932 575.485718,658.676819 
	C573.744263,660.131897 572.017029,661.575073 571.295959,662.177551 
	C565.979858,660.282593 561.649170,657.684143 557.141174,657.327759 
	C543.068359,656.215149 534.959045,667.309814 537.935730,683.279968 
z"/>
<path fill="#101012" opacity="1.000000" stroke="none" 
	d="
M456.301239,668.998901 
	C456.303986,680.136292 456.303986,690.771851 456.303986,701.650513 
	C453.839752,701.650513 451.735107,701.650513 449.031738,701.650513 
	C449.031738,687.284485 449.031738,672.888184 449.031738,657.842163 
	C443.428314,657.842163 438.385223,657.842163 433.140991,657.842163 
	C433.140991,655.400818 433.140991,653.614746 433.140991,651.470703 
	C446.221802,651.470703 459.300751,651.470703 472.949951,651.470703 
	C473.049652,653.176086 473.160217,655.067383 473.308014,657.595581 
	C467.596924,657.595581 462.213104,657.595581 456.298492,657.595581 
	C456.298492,661.625916 456.298492,665.061462 456.301239,668.998901 
z"/>
<path fill="rgba(255,255,255,0)" opacity="1.000000" stroke="none" 
	d="
M600.573975,471.010681 
	C600.006592,486.137207 600.006775,500.816254 598.717773,515.381226 
	C597.279785,531.630493 590.796021,539.038086 574.642700,541.174011 
	C558.753967,543.275085 542.590454,543.298584 526.105103,544.259521 
	C526.105103,491.972656 526.105103,441.084686 526.105103,389.430115 
	C529.305481,389.430115 532.564636,389.264771 535.802124,389.459351 
	C548.402832,390.216736 561.179382,390.031738 573.549133,392.170929 
	C591.045776,395.196747 598.070312,403.923584 599.022339,421.600952 
	C599.899353,437.885498 600.083496,454.207428 600.573975,471.010681 
z"/>
<path fill="rgba(255,255,255,0)" opacity="1.000000" stroke="none" 
	d="
M132.756256,679.238159 
	C141.157745,679.322876 144.966492,681.783936 145.057663,686.889587 
	C145.153427,692.252502 141.056747,695.437317 133.432724,695.701660 
	C129.164490,695.849670 124.886925,695.728271 120.371117,695.728271 
	C120.371117,690.062927 120.371117,684.986328 120.371117,679.238098 
	C124.432678,679.238098 128.364395,679.238098 132.756256,679.238159 
z"/>
<path fill="rgba(255,255,255,0)" opacity="1.000000" stroke="none" 
	d="
M144.031921,664.181946 
	C143.349487,670.759644 141.197968,672.980896 135.333710,673.157043 
	C130.408371,673.304993 125.475075,673.187500 120.335129,673.187500 
	C120.335129,667.882690 120.335129,663.140076 120.335129,658.149841 
	C126.681686,658.149841 132.948807,657.732300 139.095810,658.407837 
	C140.906296,658.606812 142.376892,661.898560 144.031921,664.181946 
z"/>
<path fill="rgba(255,255,255,0)" opacity="1.000000" stroke="none" 
	d="
M245.430359,694.880737 
	C237.394714,697.036377 229.759903,697.218018 224.481674,690.437317 
	C218.954300,683.336426 218.819092,674.903748 222.195343,666.779785 
	C225.350815,659.187195 233.590179,655.721741 242.760803,657.363098 
	C250.488403,658.746155 255.283661,664.150330 256.201752,672.510620 
	C257.399353,683.416443 254.313538,690.016235 245.430359,694.880737 
z"/>
<path fill="rgba(255,255,255,0)" opacity="1.000000" stroke="none" 
	d="
M341.008118,694.348999 
	C332.375488,688.917480 329.153839,675.728455 333.852905,666.262512 
	C337.844360,658.222046 347.716278,654.694885 357.049805,658.052368 
	C362.460388,659.998718 365.913940,663.772217 367.072601,669.467041 
	C367.436157,671.253967 367.698822,673.079956 367.797058,674.899414 
	C368.674103,691.146973 356.729309,699.999268 341.008118,694.348999 
z"/>
<path fill="rgba(255,255,255,0)" opacity="1.000000" stroke="none" 
	d="
M665.893311,684.501343 
	C659.375671,685.220276 652.953979,685.513367 645.308899,685.862366 
	C648.950745,676.934265 652.249939,668.846191 656.073608,659.472412 
	C659.740662,668.571167 662.864990,676.323364 665.893311,684.501343 
z"/>
<path fill="rgba(255,255,255,0)" opacity="1.000000" stroke="none" 
	d="
M888.475342,659.189087 
	C892.440430,662.309875 892.856934,666.111572 891.511353,670.173218 
	C890.107056,674.412292 886.828247,676.567383 882.491455,676.788025 
	C878.208496,677.005859 873.905701,676.835632 869.174744,676.835632 
	C869.174744,670.619507 869.174744,664.454224 869.174744,657.199158 
	C875.542236,657.800049 881.829590,658.393433 888.475342,659.189087 
z"/>
</svg>